Patient4_TMGait_0pt5_02_right_39_EMG.mot
version=1
nRows=33
nColumns=33
inDegrees=no
endheader
time	1LAddLong	2LGlutMax	3LGlutMed	4LIliopsoas	5LSemiMemb	6LBicFemLong	7LRecFem	8LVastMed	9LVastLat	10LGasMed	11LTibAnt	12lTibPost	13LPeroneusLong	14LSol	15LExtDigLong	16LFlexDigLong	17RAddLong	18RGlutMax	19RGlutMed	20RIliopsoas	21RSemiMemb	22RBicFemLong	23RRecFem	24RVastMed	25RVastLat	26RGasMed	27RTibAnt	28RTibPost	29RPeroneusLong	30RSol	31RExtDigLong	32RFlexDigLong
51.87	0.0177	-0.2623	-0.070038	0.002136	0.11581	-0.40314	-0.023499	0.027161	0.26718	0.050049	-0.012512	0.028381	0.06424	0.046234	-0.02594	0.042725	0.056152	0.068817	0.52643	0.037231	0.015717	-0.02533	-0.26901	-0.003815	0.007324	0.00824	0.060272	0.003052	0.33646	-0.12863	0.002747	-0.014038
51.871	-0.00351	-0.24063	-0.09552	-0.005341	0.025635	-0.26093	0.12314	0.038757	0.1622	0.046082	-0.019989	0.027313	-0.039063	0.075836	-0.032806	0.039978	0.072937	0.043945	-0.36713	0.04837	-0.06012	-0.003357	-0.28702	0.037537	0.007629	-0.000153	0.045776	0.007324	0.55771	-0.33539	-0.003204	-0.011292
51.872	-0.013428	-0.15396	-0.089569	-0.003357	-0.029449	-0.10223	0.22507	0.028839	-0.015564	0.041962	-0.024719	0.03006	-0.17334	0.0737	-0.048981	0.035248	0.067444	-0.040894	-0.38238	-0.029144	-0.036163	-0.017548	-0.27054	-0.005951	-0.005493	-0.006104	0.045319	0.010223	0.69855	-0.60226	-0.000916	-0.0177
51.873	0.000916	-0.16846	-0.055237	-0.002136	-0.040131	0.051422	0.18906	0.018158	-0.03479	0.037079	-0.015564	0.027008	0.028076	0.099792	-0.016327	0.036621	0.036621	-0.041504	0.55054	-0.083618	-0.047607	-0.02121	-0.26855	-0.076294	-0.010681	0.00061	0.041199	-0.018463	0.61981	-0.70709	-0.000763	-0.014648
51.874	0.005798	-0.14572	-0.032806	0.001221	0.052643	0.17349	0.041962	0.01358	0.003357	0.03067	-0.009918	0.029297	-0.012207	0.13534	0.036926	0.046844	0.010834	-0.075684	0.041809	-0.054626	-0.06134	-0.020447	-0.25192	-0.05188	-0.018768	-0.009613	0.006409	-0.14496	0.54794	-0.29755	-0.00061	-0.017853
51.875	0.020294	-0.14267	0.024414	0.014191	0.040588	0.25925	-0.063477	0.02655	0.06134	0.041199	-0.000153	0.024109	-0.16968	0.15015	0.028229	0.052185	-0.000916	-0.095367	-0.18906	-0.085449	-0.067902	-0.027771	-0.23895	-0.028534	-0.007172	-0.010223	-0.041656	-0.000305	0.29907	0.21561	-0.001221	-0.017242
51.876	0.019379	-0.06073	0.03418	0.020752	-0.094604	0.29663	-0.008392	0.027924	0.13306	0.044403	-0.00824	0.034943	-0.10895	0.1767	0.012817	0.041504	-0.006714	-0.088043	-0.016937	-0.044403	-0.069275	-0.016174	-0.25955	0.031891	-0.015106	-0.016479	0.033112	-0.061493	-0.14175	0.078125	-0.001526	-0.019989
51.877	0.004272	-0.040741	-0.03067	0.024567	-0.15396	0.29541	0.093994	0.013885	0.18051	0.036011	-0.016785	0.02594	-0.31372	0.21835	0.022278	0.046234	-0.010834	-0.10071	0.21225	-0.056763	-0.063477	-0.018921	-0.29098	0.039978	-0.00473	-0.035095	0.093689	-0.1004	-0.10513	0.054016	-0.003662	-0.031281
51.878	0.007629	0.005493	-0.021973	0.027618	-0.10437	0.25757	0.10162	-0.00061	0.10483	0.049744	-0.006104	0.034485	-0.36987	0.14771	-0.049286	0.026855	-0.007019	-0.12726	0.45242	0.069885	-0.034485	0.041046	-0.28625	-0.009613	-0.005798	-0.031891	0.092163	-0.00946	-0.015106	0.20767	0.000458	-0.036316
51.879	0.005951	0.070953	0.012054	0.021362	0.011292	0.18005	0.063477	-0.018463	0.009766	0.069427	-0.000916	0.035706	0.001526	0.12116	-0.1001	0.013275	0.009003	-0.18707	0.080566	0.16892	0.018005	0.071106	-0.27557	0.03006	-0.004578	-0.018616	0.0737	0.10635	-0.6012	0.014343	-0.001526	-0.039825
51.88	-0.000458	0.096741	0.028229	0.00473	0.074005	0.02182	0.028687	-0.019531	-0.028076	0.06012	-0.023804	0.038605	0.67017	0.11765	-0.112	0.038147	0.02243	-0.20859	-0.04776	0.081635	-0.000153	0.009308	-0.24475	0.011597	-0.037231	0.001831	0.072021	0.096588	-1.2886	-0.16113	0.001373	-0.036316
51.881	-0.003052	0.14847	0.027618	0.006409	0.078735	-0.47226	-0.068665	0.008087	-0.017853	0.028687	-0.035706	0.026703	0.48782	0.13794	-0.061951	0.033722	0.024261	-0.24277	-0.007629	0.017242	-0.010681	-0.002289	-0.25787	-0.062714	-0.040436	-0.00473	0.058899	0.055847	-1.0059	0.29236	-0.001221	-0.035706
51.882	0.000153	0.17517	0.044861	0.011902	0.0914	-0.63217	-0.12177	0.011292	-0.15808	0.026093	-0.028076	0.035858	-0.020905	0.10574	-0.041199	0.016022	0.020752	-0.2269	0.14008	0.009613	-0.031586	0.007019	-0.26047	-0.094299	-0.038452	-0.086823	0.041962	-0.18616	-0.37201	0.29709	0.002899	-0.039673
51.883	0.014801	0.14923	0.058899	0.012207	0.068207	-0.39764	-0.11581	-0.018158	-0.1207	0.031738	-0.007324	0.052948	-0.28305	0.15717	-0.023651	0.010834	0.029602	-0.25482	0.10803	0.057678	-0.043182	0.047607	-0.27786	-0.072632	-0.043945	-0.086975	0.01297	-0.26703	0.046082	-0.1831	0.001068	-0.042725
51.884	0.010071	0.13046	0.058594	0.010986	0.073853	-0.089569	0.002747	-0.018921	-0.052948	0.005188	-0.009003	0.040436	0.10925	0.24185	0.004425	0.005493	0.081329	-0.2446	0.070953	0.062561	-0.04837	-0.09613	-0.29266	-0.032196	-0.032654	-0.071411	0.002594	0.18509	0.14389	-0.34943	-0.001678	-0.03479
51.885	-0.01709	0.1265	0.007172	0.013885	0.079041	0.13001	0.1532	-0.030975	-0.031128	-0.044861	-0.011444	0.052032	0.20233	0.30945	0.038452	0.008087	0.044861	-0.25971	0.03479	0.074005	-0.044861	-0.14984	-0.31769	-0.039368	-0.023956	-0.023804	-0.023804	-0.36057	0.38361	-0.42221	0.000153	-0.026703
51.886	-0.032349	0.11856	-0.015106	0.016174	0.018158	0.29053	0.19852	-0.024719	-0.075073	-0.045776	0.007477	0.03006	-0.046234	0.31158	0.013123	0.031586	0.020752	-0.32074	0.14069	0.078278	-0.057526	-0.14114	-0.32272	-0.022278	-0.015106	-0.005951	-0.03006	0.2742	0.49149	-0.70252	-0.001831	-0.025635
51.887	-0.03418	0.067902	0.045471	0.021515	-0.040741	0.34882	0.14404	0.007782	-0.083771	-0.038147	0.002747	0.043488	-0.22858	0.27695	-0.021667	0.025177	-0.012512	-0.2887	0.17822	0.077667	-0.061035	-0.18921	-0.31998	-0.015869	-0.012512	0.013733	-0.033112	0.13031	0.27786	-0.41061	0.001221	-0.024567
51.888	-0.029449	0.03952	0.057678	0.02533	-0.13229	0.26398	0.046387	0.031891	-0.12146	-0.035248	0.00824	0.041809	0.19806	0.29953	-0.018463	0.033417	-0.00824	-0.20798	0.1413	0.071411	-0.091858	-0.23407	-0.34454	-0.014191	-0.009766	0.018463	-0.019226	0.14206	0.14877	-0.010223	0.002289	-0.014343
51.889	-0.027161	-0.018616	0.052185	0.010529	-0.10559	0.21316	0.036774	0.041504	-0.077515	-0.048828	-0.01358	0.034027	0.16907	0.29999	-0.00412	0.03067	0.017395	-0.18982	0.10635	0.05249	-0.086975	-0.22736	-0.33676	-0.059052	0.003815	0.006104	-0.039978	0.055695	0.073395	0.07431	-0.002441	-0.006561
51.89	-0.019684	-0.072021	0.009613	0.006104	-0.10834	0.077209	0.0354	0.022888	-0.04303	-0.061646	-0.001373	0.039215	-0.19714	0.28336	0.00061	0.019836	0.025024	-0.19165	0.15503	-0.017853	-0.065155	-0.1535	-0.35294	-0.025482	0.007935	-0.00061	-0.012817	0.087585	0.095978	1.1638	0.00061	-0.011749
51.891	-0.000153	-0.1564	-0.057983	0.003967	-0.034485	-0.009155	-0.041656	0.014343	-0.033569	-0.042877	-0.038757	0.031281	-0.24567	0.19165	-0.040894	0.013733	-0.017395	-0.22385	0.15945	-0.04837	-0.055237	-0.006104	-0.33188	-0.028076	-0.00946	0.00351	-0.013733	0.040436	0.2948	1.4134	0.00473	-0.011597
51.892	-0.015564	-0.16022	-0.04837	0.02533	0.02182	-0.072937	-0.06424	0.015106	-0.091705	-0.052338	-0.027008	0.03891	-0.1268	0.23377	-0.00946	-0.002594	-0.02121	-0.21164	0.20111	-0.034943	-0.023499	0.031891	-0.34454	-0.009308	-0.00473	0.007477	-0.012512	0.036621	0.24796	0.83588	-0.00061	-0.014496
51.893	0.051727	-0.14603	-0.068512	0.043793	0.069885	-0.11658	0.018005	0.017853	-0.10559	-0.068512	-0.015869	0.03067	-0.23148	0.29083	0.045776	-0.005341	-0.054169	-0.1918	0.17639	-0.06485	0.01297	0.032196	-0.34332	0.007019	-0.000305	-0.000763	-0.003967	0.010529	0.001373	0.30014	-0.00061	-0.019989
51.894	-0.070953	-0.16174	0.005798	0.046539	0.01297	-0.24689	0.055237	0.009308	-0.058441	-0.054169	0.006561	0.024261	-0.27283	0.18402	0.019989	-0.014648	-0.03418	-0.18326	0.23407	-0.14801	0.036316	0.090332	-0.31281	-0.03006	-0.009308	0.004883	-0.021667	-0.00824	0.12192	0.038605	-0.000458	-0.023499
51.895	-0.02594	-0.2063	0.046844	0.024109	0.026093	-0.215	0.061951	0.001984	-0.052795	-0.064697	0.011139	0.025177	-0.25726	0.14114	0.037079	-0.036163	-0.014343	-0.2092	0.26398	-0.13886	0.066986	0.15945	-0.3656	0.010529	0	0.001526	0.020599	-0.022583	0.024414	-0.041351	0	-0.026245
51.896	0.006409	-0.29877	0.048218	0.010681	0.078125	-0.1326	-0.007782	-0.007782	-0.092926	-0.082855	0.004272	0.023651	-0.18204	0.20157	0.045013	-0.03067	-0.00473	-0.34531	0.16647	-0.090179	0.067139	0.11444	-0.35492	0.044403	0.003052	-0.001068	0.024567	-0.027924	0.053253	-0.097656	-0.000153	-0.0177
51.897	-0.004578	-0.24857	-0.078278	0.002899	0.004425	0.1535	-0.093536	-0.001221	-0.10254	-0.06897	0.00351	0.020142	-0.21103	0.19424	0.028534	-0.037231	0.016785	-0.37643	0.17593	-0.09964	0.0354	0.041656	-0.35416	-0.001526	0.00412	0.006714	0.017242	-0.03479	0.11475	0.030975	0.000305	-0.021362
51.898	-0.011597	-0.21744	-0.2092	0.007782	-0.074005	0.28214	-0.14999	-0.021057	-0.037842	-0.052185	0.000458	0.027008	-0.25513	0.14542	0.029602	-0.064392	0.032654	-0.32547	0.12573	-0.02121	0.02594	0.028839	-0.35538	0.027008	-0.000305	-0.00824	0.017548	-0.031891	0.010681	0.043945	0.001373	-0.024567
51.899	-0.011139	-0.17166	-0.17868	0.023499	-0.080414	0.3627	-0.092773	-0.021515	-0.082092	-0.028992	0.002747	0.030212	-0.31479	0.086823	0.023651	-0.067291	0.049133	-0.33829	0.20248	0.044708	0.009613	-0.014343	-0.3421	0.07309	0.003204	0.005341	0.000916	-0.036316	-0.005798	-0.046997	0.001984	-0.018616
51.9	-0.01358	-0.15167	-0.022583	0.049286	-0.085907	0.31296	-0.005188	-0.030518	-0.12421	0.006409	-0.000916	0.020294	-0.20309	0.079651	0.041962	-0.086212	0.030212	-0.35706	0.28397	0.061646	0.001831	-0.000458	-0.31967	0.074921	0.016937	0.000305	-0.00061	-0.034485	-0.085602	0.027924	0.001526	-0.015869
51.901	-0.013428	-0.064392	0.013733	0.043488	-0.094757	0.29434	-0.02121	-0.026703	-0.18051	-0.00061	-0.004425	0.017548	-0.21881	0.094299	0.057373	-0.090485	0.022583	-0.37521	0.15976	0.056458	0.055847	0.0383	-0.28946	0.081482	-0.006561	-0.001678	0.033875	-0.032806	-0.11948	0.026245	-0.00061	-0.020447
51.902	0.000763	0.085754	0.054779	-0.005951	-0.040436	0.058594	-0.13138	-0.023651	-0.1149	-0.020447	-0.005035	0.006714	-0.18372	0.028076	0.072632	-0.095062	0.029297	-0.44739	0.177	0.063477	0.066071	0.0383	-0.32898	0.088654	0.001068	0.005341	0.042877	-0.035553	-0.10498	-0.080719	0.002441	-0.019836
